<mxfile host="app.diagrams.net" modified="2020-10-14T07:22:15.998Z" agent="5.0 (Windows NT 10.0; WOW64) AppleWebKit/537.36 (KHTML, like Gecko) Chrome/77.0.3865.120 YaBrowser/19.10.3.281 Yowser/2.5 Safari/537.36" etag="Eey0waay1z8fiDemypvF" version="13.7.9" type="github">
  <diagram id="gB8c_-qkB2TAL_NOBoC9" name="Page-1">
    <mxGraphModel dx="1117" dy="621" grid="1" gridSize="10" guides="1" tooltips="1" connect="1" arrows="1" fold="1" page="1" pageScale="1" pageWidth="827" pageHeight="1169" background="none" math="0" shadow="0">
      <root>
        <mxCell id="0" />
        <mxCell id="1" parent="0" />
        <mxCell id="RVTYteY4xEqkH4nEgRWx-1" value="CONFIG_PARAM_D" style="shape=table;startSize=30;container=1;collapsible=1;childLayout=tableLayout;fixedRows=1;rowLines=0;fontStyle=1;align=center;resizeLast=1;" vertex="1" parent="1">
          <mxGeometry x="50" y="50" width="180" height="230" as="geometry" />
        </mxCell>
        <mxCell id="RVTYteY4xEqkH4nEgRWx-2" value="" style="shape=partialRectangle;collapsible=0;dropTarget=0;pointerEvents=0;fillColor=none;top=0;left=0;bottom=1;right=0;points=[[0,0.5],[1,0.5]];portConstraint=eastwest;" vertex="1" parent="RVTYteY4xEqkH4nEgRWx-1">
          <mxGeometry y="30" width="180" height="30" as="geometry" />
        </mxCell>
        <mxCell id="RVTYteY4xEqkH4nEgRWx-3" value="PK" style="shape=partialRectangle;connectable=0;fillColor=none;top=0;left=0;bottom=0;right=0;fontStyle=1;overflow=hidden;" vertex="1" parent="RVTYteY4xEqkH4nEgRWx-2">
          <mxGeometry width="30" height="30" as="geometry" />
        </mxCell>
        <mxCell id="RVTYteY4xEqkH4nEgRWx-4" value="PARAM_CD" style="shape=partialRectangle;connectable=0;fillColor=none;top=0;left=0;bottom=0;right=0;align=left;spacingLeft=6;fontStyle=5;overflow=hidden;" vertex="1" parent="RVTYteY4xEqkH4nEgRWx-2">
          <mxGeometry x="30" width="150" height="30" as="geometry" />
        </mxCell>
        <mxCell id="RVTYteY4xEqkH4nEgRWx-5" value="" style="shape=partialRectangle;collapsible=0;dropTarget=0;pointerEvents=0;fillColor=none;top=0;left=0;bottom=0;right=0;points=[[0,0.5],[1,0.5]];portConstraint=eastwest;" vertex="1" parent="RVTYteY4xEqkH4nEgRWx-1">
          <mxGeometry y="60" width="180" height="30" as="geometry" />
        </mxCell>
        <mxCell id="RVTYteY4xEqkH4nEgRWx-6" value="" style="shape=partialRectangle;connectable=0;fillColor=none;top=0;left=0;bottom=0;right=0;editable=1;overflow=hidden;" vertex="1" parent="RVTYteY4xEqkH4nEgRWx-5">
          <mxGeometry width="30" height="30" as="geometry" />
        </mxCell>
        <mxCell id="RVTYteY4xEqkH4nEgRWx-7" value="PARAM_NM" style="shape=partialRectangle;connectable=0;fillColor=none;top=0;left=0;bottom=0;right=0;align=left;spacingLeft=6;overflow=hidden;" vertex="1" parent="RVTYteY4xEqkH4nEgRWx-5">
          <mxGeometry x="30" width="150" height="30" as="geometry" />
        </mxCell>
        <mxCell id="RVTYteY4xEqkH4nEgRWx-8" value="" style="shape=partialRectangle;collapsible=0;dropTarget=0;pointerEvents=0;fillColor=none;top=0;left=0;bottom=0;right=0;points=[[0,0.5],[1,0.5]];portConstraint=eastwest;" vertex="1" parent="RVTYteY4xEqkH4nEgRWx-1">
          <mxGeometry y="90" width="180" height="30" as="geometry" />
        </mxCell>
        <mxCell id="RVTYteY4xEqkH4nEgRWx-9" value="" style="shape=partialRectangle;connectable=0;fillColor=none;top=0;left=0;bottom=0;right=0;editable=1;overflow=hidden;" vertex="1" parent="RVTYteY4xEqkH4nEgRWx-8">
          <mxGeometry width="30" height="30" as="geometry" />
        </mxCell>
        <mxCell id="RVTYteY4xEqkH4nEgRWx-10" value="PARAM_VALUE_TX" style="shape=partialRectangle;connectable=0;fillColor=none;top=0;left=0;bottom=0;right=0;align=left;spacingLeft=6;overflow=hidden;" vertex="1" parent="RVTYteY4xEqkH4nEgRWx-8">
          <mxGeometry x="30" width="150" height="30" as="geometry" />
        </mxCell>
        <mxCell id="RVTYteY4xEqkH4nEgRWx-30" value="" style="shape=partialRectangle;collapsible=0;dropTarget=0;pointerEvents=0;fillColor=none;top=0;left=0;bottom=0;right=0;points=[[0,0.5],[1,0.5]];portConstraint=eastwest;" vertex="1" parent="RVTYteY4xEqkH4nEgRWx-1">
          <mxGeometry y="120" width="180" height="30" as="geometry" />
        </mxCell>
        <mxCell id="RVTYteY4xEqkH4nEgRWx-31" value="" style="shape=partialRectangle;connectable=0;fillColor=none;top=0;left=0;bottom=0;right=0;editable=1;overflow=hidden;" vertex="1" parent="RVTYteY4xEqkH4nEgRWx-30">
          <mxGeometry width="30" height="30" as="geometry" />
        </mxCell>
        <mxCell id="RVTYteY4xEqkH4nEgRWx-32" value="PARAM_TX" style="shape=partialRectangle;connectable=0;fillColor=none;top=0;left=0;bottom=0;right=0;align=left;spacingLeft=6;overflow=hidden;" vertex="1" parent="RVTYteY4xEqkH4nEgRWx-30">
          <mxGeometry x="30" width="150" height="30" as="geometry" />
        </mxCell>
        <mxCell id="RVTYteY4xEqkH4nEgRWx-11" value="" style="shape=partialRectangle;collapsible=0;dropTarget=0;pointerEvents=0;fillColor=none;top=0;left=0;bottom=0;right=0;points=[[0,0.5],[1,0.5]];portConstraint=eastwest;" vertex="1" parent="RVTYteY4xEqkH4nEgRWx-1">
          <mxGeometry y="150" width="180" height="30" as="geometry" />
        </mxCell>
        <mxCell id="RVTYteY4xEqkH4nEgRWx-12" value="" style="shape=partialRectangle;connectable=0;fillColor=none;top=0;left=0;bottom=0;right=0;editable=1;overflow=hidden;" vertex="1" parent="RVTYteY4xEqkH4nEgRWx-11">
          <mxGeometry width="30" height="30" as="geometry" />
        </mxCell>
        <mxCell id="RVTYteY4xEqkH4nEgRWx-13" value="CHANGE_TS" style="shape=partialRectangle;connectable=0;fillColor=none;top=0;left=0;bottom=0;right=0;align=left;spacingLeft=6;overflow=hidden;" vertex="1" parent="RVTYteY4xEqkH4nEgRWx-11">
          <mxGeometry x="30" width="150" height="30" as="geometry" />
        </mxCell>
        <mxCell id="RVTYteY4xEqkH4nEgRWx-27" value="" style="shape=partialRectangle;collapsible=0;dropTarget=0;pointerEvents=0;fillColor=none;top=0;left=0;bottom=0;right=0;points=[[0,0.5],[1,0.5]];portConstraint=eastwest;" vertex="1" parent="RVTYteY4xEqkH4nEgRWx-1">
          <mxGeometry y="180" width="180" height="40" as="geometry" />
        </mxCell>
        <mxCell id="RVTYteY4xEqkH4nEgRWx-28" value="" style="shape=partialRectangle;connectable=0;fillColor=none;top=0;left=0;bottom=0;right=0;editable=1;overflow=hidden;" vertex="1" parent="RVTYteY4xEqkH4nEgRWx-27">
          <mxGeometry width="30" height="40" as="geometry" />
        </mxCell>
        <mxCell id="RVTYteY4xEqkH4nEgRWx-29" value="DELETED_FL" style="shape=partialRectangle;connectable=0;fillColor=none;top=0;left=0;bottom=0;right=0;align=left;spacingLeft=6;overflow=hidden;" vertex="1" parent="RVTYteY4xEqkH4nEgRWx-27">
          <mxGeometry x="30" width="150" height="40" as="geometry" />
        </mxCell>
        <mxCell id="RVTYteY4xEqkH4nEgRWx-33" value="IN_REQUEST_F" style="shape=table;startSize=30;container=1;collapsible=1;childLayout=tableLayout;fixedRows=1;rowLines=0;fontStyle=1;align=center;resizeLast=1;" vertex="1" parent="1">
          <mxGeometry x="420" y="130" width="220" height="670" as="geometry" />
        </mxCell>
        <mxCell id="RVTYteY4xEqkH4nEgRWx-34" value="" style="shape=partialRectangle;collapsible=0;dropTarget=0;pointerEvents=0;fillColor=none;top=0;left=0;bottom=1;right=0;points=[[0,0.5],[1,0.5]];portConstraint=eastwest;" vertex="1" parent="RVTYteY4xEqkH4nEgRWx-33">
          <mxGeometry y="30" width="220" height="30" as="geometry" />
        </mxCell>
        <mxCell id="RVTYteY4xEqkH4nEgRWx-35" value="PK" style="shape=partialRectangle;connectable=0;fillColor=none;top=0;left=0;bottom=0;right=0;fontStyle=1;overflow=hidden;" vertex="1" parent="RVTYteY4xEqkH4nEgRWx-34">
          <mxGeometry width="30" height="30" as="geometry" />
        </mxCell>
        <mxCell id="RVTYteY4xEqkH4nEgRWx-36" value="IN_REQUEST_ID" style="shape=partialRectangle;connectable=0;fillColor=none;top=0;left=0;bottom=0;right=0;align=left;spacingLeft=6;fontStyle=5;overflow=hidden;" vertex="1" parent="RVTYteY4xEqkH4nEgRWx-34">
          <mxGeometry x="30" width="190" height="30" as="geometry" />
        </mxCell>
        <mxCell id="RVTYteY4xEqkH4nEgRWx-37" value="" style="shape=partialRectangle;collapsible=0;dropTarget=0;pointerEvents=0;fillColor=none;top=0;left=0;bottom=0;right=0;points=[[0,0.5],[1,0.5]];portConstraint=eastwest;" vertex="1" parent="RVTYteY4xEqkH4nEgRWx-33">
          <mxGeometry y="60" width="220" height="30" as="geometry" />
        </mxCell>
        <mxCell id="RVTYteY4xEqkH4nEgRWx-38" value="" style="shape=partialRectangle;connectable=0;fillColor=none;top=0;left=0;bottom=0;right=0;editable=1;overflow=hidden;" vertex="1" parent="RVTYteY4xEqkH4nEgRWx-37">
          <mxGeometry width="30" height="30" as="geometry" />
        </mxCell>
        <mxCell id="RVTYteY4xEqkH4nEgRWx-39" value="IN_REQUEST_UUID" style="shape=partialRectangle;connectable=0;fillColor=none;top=0;left=0;bottom=0;right=0;align=left;spacingLeft=6;overflow=hidden;" vertex="1" parent="RVTYteY4xEqkH4nEgRWx-37">
          <mxGeometry x="30" width="190" height="30" as="geometry" />
        </mxCell>
        <mxCell id="RVTYteY4xEqkH4nEgRWx-40" value="" style="shape=partialRectangle;collapsible=0;dropTarget=0;pointerEvents=0;fillColor=none;top=0;left=0;bottom=0;right=0;points=[[0,0.5],[1,0.5]];portConstraint=eastwest;" vertex="1" parent="RVTYteY4xEqkH4nEgRWx-33">
          <mxGeometry y="90" width="220" height="30" as="geometry" />
        </mxCell>
        <mxCell id="RVTYteY4xEqkH4nEgRWx-41" value="" style="shape=partialRectangle;connectable=0;fillColor=none;top=0;left=0;bottom=0;right=0;editable=1;overflow=hidden;" vertex="1" parent="RVTYteY4xEqkH4nEgRWx-40">
          <mxGeometry width="30" height="30" as="geometry" />
        </mxCell>
        <mxCell id="RVTYteY4xEqkH4nEgRWx-42" value="CALLER_SYSTEM_CD" style="shape=partialRectangle;connectable=0;fillColor=none;top=0;left=0;bottom=0;right=0;align=left;spacingLeft=6;overflow=hidden;" vertex="1" parent="RVTYteY4xEqkH4nEgRWx-40">
          <mxGeometry x="30" width="190" height="30" as="geometry" />
        </mxCell>
        <mxCell id="RVTYteY4xEqkH4nEgRWx-43" value="" style="shape=partialRectangle;collapsible=0;dropTarget=0;pointerEvents=0;fillColor=none;top=0;left=0;bottom=0;right=0;points=[[0,0.5],[1,0.5]];portConstraint=eastwest;" vertex="1" parent="RVTYteY4xEqkH4nEgRWx-33">
          <mxGeometry y="120" width="220" height="30" as="geometry" />
        </mxCell>
        <mxCell id="RVTYteY4xEqkH4nEgRWx-44" value="" style="shape=partialRectangle;connectable=0;fillColor=none;top=0;left=0;bottom=0;right=0;editable=1;overflow=hidden;" vertex="1" parent="RVTYteY4xEqkH4nEgRWx-43">
          <mxGeometry width="30" height="30" as="geometry" />
        </mxCell>
        <mxCell id="RVTYteY4xEqkH4nEgRWx-45" value="CALLER_OBJECT_ID" style="shape=partialRectangle;connectable=0;fillColor=none;top=0;left=0;bottom=0;right=0;align=left;spacingLeft=6;overflow=hidden;" vertex="1" parent="RVTYteY4xEqkH4nEgRWx-43">
          <mxGeometry x="30" width="190" height="30" as="geometry" />
        </mxCell>
        <mxCell id="RVTYteY4xEqkH4nEgRWx-46" value="" style="shape=partialRectangle;collapsible=0;dropTarget=0;pointerEvents=0;fillColor=none;top=0;left=0;bottom=0;right=0;points=[[0,0.5],[1,0.5]];portConstraint=eastwest;" vertex="1" parent="RVTYteY4xEqkH4nEgRWx-33">
          <mxGeometry y="150" width="220" height="30" as="geometry" />
        </mxCell>
        <mxCell id="RVTYteY4xEqkH4nEgRWx-47" value="" style="shape=partialRectangle;connectable=0;fillColor=none;top=0;left=0;bottom=0;right=0;editable=1;overflow=hidden;" vertex="1" parent="RVTYteY4xEqkH4nEgRWx-46">
          <mxGeometry width="30" height="30" as="geometry" />
        </mxCell>
        <mxCell id="RVTYteY4xEqkH4nEgRWx-48" value="INN_NB_TX" style="shape=partialRectangle;connectable=0;fillColor=none;top=0;left=0;bottom=0;right=0;align=left;spacingLeft=6;overflow=hidden;" vertex="1" parent="RVTYteY4xEqkH4nEgRWx-46">
          <mxGeometry x="30" width="190" height="30" as="geometry" />
        </mxCell>
        <mxCell id="RVTYteY4xEqkH4nEgRWx-49" value="" style="shape=partialRectangle;collapsible=0;dropTarget=0;pointerEvents=0;fillColor=none;top=0;left=0;bottom=0;right=0;points=[[0,0.5],[1,0.5]];portConstraint=eastwest;" vertex="1" parent="RVTYteY4xEqkH4nEgRWx-33">
          <mxGeometry y="180" width="220" height="40" as="geometry" />
        </mxCell>
        <mxCell id="RVTYteY4xEqkH4nEgRWx-50" value="" style="shape=partialRectangle;connectable=0;fillColor=none;top=0;left=0;bottom=0;right=0;editable=1;overflow=hidden;" vertex="1" parent="RVTYteY4xEqkH4nEgRWx-49">
          <mxGeometry width="30" height="40" as="geometry" />
        </mxCell>
        <mxCell id="RVTYteY4xEqkH4nEgRWx-51" value="ACC_NB_TX" style="shape=partialRectangle;connectable=0;fillColor=none;top=0;left=0;bottom=0;right=0;align=left;spacingLeft=6;overflow=hidden;" vertex="1" parent="RVTYteY4xEqkH4nEgRWx-49">
          <mxGeometry x="30" width="190" height="40" as="geometry" />
        </mxCell>
        <mxCell id="RVTYteY4xEqkH4nEgRWx-52" value="" style="shape=partialRectangle;collapsible=0;dropTarget=0;pointerEvents=0;fillColor=none;top=0;left=0;bottom=0;right=0;points=[[0,0.5],[1,0.5]];portConstraint=eastwest;" vertex="1" parent="RVTYteY4xEqkH4nEgRWx-33">
          <mxGeometry y="220" width="220" height="40" as="geometry" />
        </mxCell>
        <mxCell id="RVTYteY4xEqkH4nEgRWx-53" value="" style="shape=partialRectangle;connectable=0;fillColor=none;top=0;left=0;bottom=0;right=0;editable=1;overflow=hidden;" vertex="1" parent="RVTYteY4xEqkH4nEgRWx-52">
          <mxGeometry width="30" height="40" as="geometry" />
        </mxCell>
        <mxCell id="RVTYteY4xEqkH4nEgRWx-54" value="DBO_REPLICATION_GUID" style="shape=partialRectangle;connectable=0;fillColor=none;top=0;left=0;bottom=0;right=0;align=left;spacingLeft=6;overflow=hidden;" vertex="1" parent="RVTYteY4xEqkH4nEgRWx-52">
          <mxGeometry x="30" width="190" height="40" as="geometry" />
        </mxCell>
        <mxCell id="RVTYteY4xEqkH4nEgRWx-55" value="" style="shape=partialRectangle;collapsible=0;dropTarget=0;pointerEvents=0;fillColor=none;top=0;left=0;bottom=0;right=0;points=[[0,0.5],[1,0.5]];portConstraint=eastwest;" vertex="1" parent="RVTYteY4xEqkH4nEgRWx-33">
          <mxGeometry y="260" width="220" height="40" as="geometry" />
        </mxCell>
        <mxCell id="RVTYteY4xEqkH4nEgRWx-56" value="" style="shape=partialRectangle;connectable=0;fillColor=none;top=0;left=0;bottom=0;right=0;editable=1;overflow=hidden;" vertex="1" parent="RVTYteY4xEqkH4nEgRWx-55">
          <mxGeometry width="30" height="40" as="geometry" />
        </mxCell>
        <mxCell id="RVTYteY4xEqkH4nEgRWx-57" value="BLOCK_CODE" style="shape=partialRectangle;connectable=0;fillColor=none;top=0;left=0;bottom=0;right=0;align=left;spacingLeft=6;overflow=hidden;" vertex="1" parent="RVTYteY4xEqkH4nEgRWx-55">
          <mxGeometry x="30" width="190" height="40" as="geometry" />
        </mxCell>
        <mxCell id="RVTYteY4xEqkH4nEgRWx-58" value="" style="shape=partialRectangle;collapsible=0;dropTarget=0;pointerEvents=0;fillColor=none;top=0;left=0;bottom=0;right=0;points=[[0,0.5],[1,0.5]];portConstraint=eastwest;" vertex="1" parent="RVTYteY4xEqkH4nEgRWx-33">
          <mxGeometry y="300" width="220" height="40" as="geometry" />
        </mxCell>
        <mxCell id="RVTYteY4xEqkH4nEgRWx-59" value="" style="shape=partialRectangle;connectable=0;fillColor=none;top=0;left=0;bottom=0;right=0;editable=1;overflow=hidden;" vertex="1" parent="RVTYteY4xEqkH4nEgRWx-58">
          <mxGeometry width="30" height="40" as="geometry" />
        </mxCell>
        <mxCell id="RVTYteY4xEqkH4nEgRWx-60" value="BLOCK_FL" style="shape=partialRectangle;connectable=0;fillColor=none;top=0;left=0;bottom=0;right=0;align=left;spacingLeft=6;overflow=hidden;" vertex="1" parent="RVTYteY4xEqkH4nEgRWx-58">
          <mxGeometry x="30" width="190" height="40" as="geometry" />
        </mxCell>
        <mxCell id="RVTYteY4xEqkH4nEgRWx-61" value="" style="shape=partialRectangle;collapsible=0;dropTarget=0;pointerEvents=0;fillColor=none;top=0;left=0;bottom=0;right=0;points=[[0,0.5],[1,0.5]];portConstraint=eastwest;" vertex="1" parent="RVTYteY4xEqkH4nEgRWx-33">
          <mxGeometry y="340" width="220" height="40" as="geometry" />
        </mxCell>
        <mxCell id="RVTYteY4xEqkH4nEgRWx-62" value="" style="shape=partialRectangle;connectable=0;fillColor=none;top=0;left=0;bottom=0;right=0;editable=1;overflow=hidden;" vertex="1" parent="RVTYteY4xEqkH4nEgRWx-61">
          <mxGeometry width="30" height="40" as="geometry" />
        </mxCell>
        <mxCell id="RVTYteY4xEqkH4nEgRWx-63" value="LIMIT_NB" style="shape=partialRectangle;connectable=0;fillColor=none;top=0;left=0;bottom=0;right=0;align=left;spacingLeft=6;overflow=hidden;" vertex="1" parent="RVTYteY4xEqkH4nEgRWx-61">
          <mxGeometry x="30" width="190" height="40" as="geometry" />
        </mxCell>
        <mxCell id="RVTYteY4xEqkH4nEgRWx-64" value="" style="shape=partialRectangle;collapsible=0;dropTarget=0;pointerEvents=0;fillColor=none;top=0;left=0;bottom=0;right=0;points=[[0,0.5],[1,0.5]];portConstraint=eastwest;" vertex="1" parent="RVTYteY4xEqkH4nEgRWx-33">
          <mxGeometry y="380" width="220" height="40" as="geometry" />
        </mxCell>
        <mxCell id="RVTYteY4xEqkH4nEgRWx-65" value="" style="shape=partialRectangle;connectable=0;fillColor=none;top=0;left=0;bottom=0;right=0;editable=1;overflow=hidden;" vertex="1" parent="RVTYteY4xEqkH4nEgRWx-64">
          <mxGeometry width="30" height="40" as="geometry" />
        </mxCell>
        <mxCell id="RVTYteY4xEqkH4nEgRWx-66" value="FCCM_STATUS_CD" style="shape=partialRectangle;connectable=0;fillColor=none;top=0;left=0;bottom=0;right=0;align=left;spacingLeft=6;overflow=hidden;" vertex="1" parent="RVTYteY4xEqkH4nEgRWx-64">
          <mxGeometry x="30" width="190" height="40" as="geometry" />
        </mxCell>
        <mxCell id="RVTYteY4xEqkH4nEgRWx-67" value="" style="shape=partialRectangle;collapsible=0;dropTarget=0;pointerEvents=0;fillColor=none;top=0;left=0;bottom=0;right=0;points=[[0,0.5],[1,0.5]];portConstraint=eastwest;" vertex="1" parent="RVTYteY4xEqkH4nEgRWx-33">
          <mxGeometry y="420" width="220" height="40" as="geometry" />
        </mxCell>
        <mxCell id="RVTYteY4xEqkH4nEgRWx-68" value="" style="shape=partialRectangle;connectable=0;fillColor=none;top=0;left=0;bottom=0;right=0;editable=1;overflow=hidden;" vertex="1" parent="RVTYteY4xEqkH4nEgRWx-67">
          <mxGeometry width="30" height="40" as="geometry" />
        </mxCell>
        <mxCell id="RVTYteY4xEqkH4nEgRWx-69" value="FCCM_MESSAGE_TX" style="shape=partialRectangle;connectable=0;fillColor=none;top=0;left=0;bottom=0;right=0;align=left;spacingLeft=6;overflow=hidden;" vertex="1" parent="RVTYteY4xEqkH4nEgRWx-67">
          <mxGeometry x="30" width="190" height="40" as="geometry" />
        </mxCell>
        <mxCell id="RVTYteY4xEqkH4nEgRWx-70" value="" style="shape=partialRectangle;collapsible=0;dropTarget=0;pointerEvents=0;fillColor=none;top=0;left=0;bottom=0;right=0;points=[[0,0.5],[1,0.5]];portConstraint=eastwest;" vertex="1" parent="RVTYteY4xEqkH4nEgRWx-33">
          <mxGeometry y="460" width="220" height="40" as="geometry" />
        </mxCell>
        <mxCell id="RVTYteY4xEqkH4nEgRWx-71" value="" style="shape=partialRectangle;connectable=0;fillColor=none;top=0;left=0;bottom=0;right=0;editable=1;overflow=hidden;" vertex="1" parent="RVTYteY4xEqkH4nEgRWx-70">
          <mxGeometry width="30" height="40" as="geometry" />
        </mxCell>
        <mxCell id="RVTYteY4xEqkH4nEgRWx-72" value="FILE_JOURNAL_ID" style="shape=partialRectangle;connectable=0;fillColor=none;top=0;left=0;bottom=0;right=0;align=left;spacingLeft=6;overflow=hidden;" vertex="1" parent="RVTYteY4xEqkH4nEgRWx-70">
          <mxGeometry x="30" width="190" height="40" as="geometry" />
        </mxCell>
        <mxCell id="RVTYteY4xEqkH4nEgRWx-73" value="" style="shape=partialRectangle;collapsible=0;dropTarget=0;pointerEvents=0;fillColor=none;top=0;left=0;bottom=0;right=0;points=[[0,0.5],[1,0.5]];portConstraint=eastwest;" vertex="1" parent="RVTYteY4xEqkH4nEgRWx-33">
          <mxGeometry y="500" width="220" height="40" as="geometry" />
        </mxCell>
        <mxCell id="RVTYteY4xEqkH4nEgRWx-74" value="" style="shape=partialRectangle;connectable=0;fillColor=none;top=0;left=0;bottom=0;right=0;editable=1;overflow=hidden;" vertex="1" parent="RVTYteY4xEqkH4nEgRWx-73">
          <mxGeometry width="30" height="40" as="geometry" />
        </mxCell>
        <mxCell id="RVTYteY4xEqkH4nEgRWx-75" value="USER_ID" style="shape=partialRectangle;connectable=0;fillColor=none;top=0;left=0;bottom=0;right=0;align=left;spacingLeft=6;overflow=hidden;" vertex="1" parent="RVTYteY4xEqkH4nEgRWx-73">
          <mxGeometry x="30" width="190" height="40" as="geometry" />
        </mxCell>
        <mxCell id="RVTYteY4xEqkH4nEgRWx-76" value="" style="shape=partialRectangle;collapsible=0;dropTarget=0;pointerEvents=0;fillColor=none;top=0;left=0;bottom=0;right=0;points=[[0,0.5],[1,0.5]];portConstraint=eastwest;" vertex="1" parent="RVTYteY4xEqkH4nEgRWx-33">
          <mxGeometry y="540" width="220" height="40" as="geometry" />
        </mxCell>
        <mxCell id="RVTYteY4xEqkH4nEgRWx-77" value="" style="shape=partialRectangle;connectable=0;fillColor=none;top=0;left=0;bottom=0;right=0;editable=1;overflow=hidden;" vertex="1" parent="RVTYteY4xEqkH4nEgRWx-76">
          <mxGeometry width="30" height="40" as="geometry" />
        </mxCell>
        <mxCell id="RVTYteY4xEqkH4nEgRWx-78" value="CREATED_TS" style="shape=partialRectangle;connectable=0;fillColor=none;top=0;left=0;bottom=0;right=0;align=left;spacingLeft=6;overflow=hidden;" vertex="1" parent="RVTYteY4xEqkH4nEgRWx-76">
          <mxGeometry x="30" width="190" height="40" as="geometry" />
        </mxCell>
        <mxCell id="RVTYteY4xEqkH4nEgRWx-79" value="" style="shape=partialRectangle;collapsible=0;dropTarget=0;pointerEvents=0;fillColor=none;top=0;left=0;bottom=0;right=0;points=[[0,0.5],[1,0.5]];portConstraint=eastwest;" vertex="1" parent="RVTYteY4xEqkH4nEgRWx-33">
          <mxGeometry y="580" width="220" height="40" as="geometry" />
        </mxCell>
        <mxCell id="RVTYteY4xEqkH4nEgRWx-80" value="" style="shape=partialRectangle;connectable=0;fillColor=none;top=0;left=0;bottom=0;right=0;editable=1;overflow=hidden;" vertex="1" parent="RVTYteY4xEqkH4nEgRWx-79">
          <mxGeometry width="30" height="40" as="geometry" />
        </mxCell>
        <mxCell id="RVTYteY4xEqkH4nEgRWx-81" value="CHANGE_TS" style="shape=partialRectangle;connectable=0;fillColor=none;top=0;left=0;bottom=0;right=0;align=left;spacingLeft=6;overflow=hidden;" vertex="1" parent="RVTYteY4xEqkH4nEgRWx-79">
          <mxGeometry x="30" width="190" height="40" as="geometry" />
        </mxCell>
        <mxCell id="RVTYteY4xEqkH4nEgRWx-82" value="" style="shape=partialRectangle;collapsible=0;dropTarget=0;pointerEvents=0;fillColor=none;top=0;left=0;bottom=0;right=0;points=[[0,0.5],[1,0.5]];portConstraint=eastwest;" vertex="1" parent="RVTYteY4xEqkH4nEgRWx-33">
          <mxGeometry y="620" width="220" height="40" as="geometry" />
        </mxCell>
        <mxCell id="RVTYteY4xEqkH4nEgRWx-83" value="" style="shape=partialRectangle;connectable=0;fillColor=none;top=0;left=0;bottom=0;right=0;editable=1;overflow=hidden;" vertex="1" parent="RVTYteY4xEqkH4nEgRWx-82">
          <mxGeometry width="30" height="40" as="geometry" />
        </mxCell>
        <mxCell id="RVTYteY4xEqkH4nEgRWx-84" value="DELETED_FL" style="shape=partialRectangle;connectable=0;fillColor=none;top=0;left=0;bottom=0;right=0;align=left;spacingLeft=6;overflow=hidden;" vertex="1" parent="RVTYteY4xEqkH4nEgRWx-82">
          <mxGeometry x="30" width="190" height="40" as="geometry" />
        </mxCell>
        <mxCell id="RVTYteY4xEqkH4nEgRWx-273" style="edgeStyle=orthogonalEdgeStyle;rounded=0;orthogonalLoop=1;jettySize=auto;html=1;exitX=0;exitY=0.5;exitDx=0;exitDy=0;entryX=1;entryY=0.5;entryDx=0;entryDy=0;" edge="1" parent="1" source="RVTYteY4xEqkH4nEgRWx-70" target="RVTYteY4xEqkH4nEgRWx-253">
          <mxGeometry relative="1" as="geometry" />
        </mxCell>
        <mxCell id="RVTYteY4xEqkH4nEgRWx-252" value="FILE_JOURNAL_F" style="shape=table;startSize=30;container=1;collapsible=1;childLayout=tableLayout;fixedRows=1;rowLines=0;fontStyle=1;align=center;resizeLast=1;" vertex="1" parent="1">
          <mxGeometry x="80" y="430" width="180" height="230" as="geometry" />
        </mxCell>
        <mxCell id="RVTYteY4xEqkH4nEgRWx-253" value="" style="shape=partialRectangle;collapsible=0;dropTarget=0;pointerEvents=0;fillColor=none;top=0;left=0;bottom=1;right=0;points=[[0,0.5],[1,0.5]];portConstraint=eastwest;" vertex="1" parent="RVTYteY4xEqkH4nEgRWx-252">
          <mxGeometry y="30" width="180" height="30" as="geometry" />
        </mxCell>
        <mxCell id="RVTYteY4xEqkH4nEgRWx-254" value="PK" style="shape=partialRectangle;connectable=0;fillColor=none;top=0;left=0;bottom=0;right=0;fontStyle=1;overflow=hidden;" vertex="1" parent="RVTYteY4xEqkH4nEgRWx-253">
          <mxGeometry width="30" height="30" as="geometry" />
        </mxCell>
        <mxCell id="RVTYteY4xEqkH4nEgRWx-255" value="PARAM_CD" style="shape=partialRectangle;connectable=0;fillColor=none;top=0;left=0;bottom=0;right=0;align=left;spacingLeft=6;fontStyle=5;overflow=hidden;" vertex="1" parent="RVTYteY4xEqkH4nEgRWx-253">
          <mxGeometry x="30" width="150" height="30" as="geometry" />
        </mxCell>
        <mxCell id="RVTYteY4xEqkH4nEgRWx-256" value="" style="shape=partialRectangle;collapsible=0;dropTarget=0;pointerEvents=0;fillColor=none;top=0;left=0;bottom=0;right=0;points=[[0,0.5],[1,0.5]];portConstraint=eastwest;" vertex="1" parent="RVTYteY4xEqkH4nEgRWx-252">
          <mxGeometry y="60" width="180" height="30" as="geometry" />
        </mxCell>
        <mxCell id="RVTYteY4xEqkH4nEgRWx-257" value="" style="shape=partialRectangle;connectable=0;fillColor=none;top=0;left=0;bottom=0;right=0;editable=1;overflow=hidden;" vertex="1" parent="RVTYteY4xEqkH4nEgRWx-256">
          <mxGeometry width="30" height="30" as="geometry" />
        </mxCell>
        <mxCell id="RVTYteY4xEqkH4nEgRWx-258" value="PARAM_NM" style="shape=partialRectangle;connectable=0;fillColor=none;top=0;left=0;bottom=0;right=0;align=left;spacingLeft=6;overflow=hidden;" vertex="1" parent="RVTYteY4xEqkH4nEgRWx-256">
          <mxGeometry x="30" width="150" height="30" as="geometry" />
        </mxCell>
        <mxCell id="RVTYteY4xEqkH4nEgRWx-259" value="" style="shape=partialRectangle;collapsible=0;dropTarget=0;pointerEvents=0;fillColor=none;top=0;left=0;bottom=0;right=0;points=[[0,0.5],[1,0.5]];portConstraint=eastwest;" vertex="1" parent="RVTYteY4xEqkH4nEgRWx-252">
          <mxGeometry y="90" width="180" height="30" as="geometry" />
        </mxCell>
        <mxCell id="RVTYteY4xEqkH4nEgRWx-260" value="" style="shape=partialRectangle;connectable=0;fillColor=none;top=0;left=0;bottom=0;right=0;editable=1;overflow=hidden;" vertex="1" parent="RVTYteY4xEqkH4nEgRWx-259">
          <mxGeometry width="30" height="30" as="geometry" />
        </mxCell>
        <mxCell id="RVTYteY4xEqkH4nEgRWx-261" value="PARAM_VALUE_TX" style="shape=partialRectangle;connectable=0;fillColor=none;top=0;left=0;bottom=0;right=0;align=left;spacingLeft=6;overflow=hidden;" vertex="1" parent="RVTYteY4xEqkH4nEgRWx-259">
          <mxGeometry x="30" width="150" height="30" as="geometry" />
        </mxCell>
        <mxCell id="RVTYteY4xEqkH4nEgRWx-262" value="" style="shape=partialRectangle;collapsible=0;dropTarget=0;pointerEvents=0;fillColor=none;top=0;left=0;bottom=0;right=0;points=[[0,0.5],[1,0.5]];portConstraint=eastwest;" vertex="1" parent="RVTYteY4xEqkH4nEgRWx-252">
          <mxGeometry y="120" width="180" height="30" as="geometry" />
        </mxCell>
        <mxCell id="RVTYteY4xEqkH4nEgRWx-263" value="" style="shape=partialRectangle;connectable=0;fillColor=none;top=0;left=0;bottom=0;right=0;editable=1;overflow=hidden;" vertex="1" parent="RVTYteY4xEqkH4nEgRWx-262">
          <mxGeometry width="30" height="30" as="geometry" />
        </mxCell>
        <mxCell id="RVTYteY4xEqkH4nEgRWx-264" value="PARAM_TX" style="shape=partialRectangle;connectable=0;fillColor=none;top=0;left=0;bottom=0;right=0;align=left;spacingLeft=6;overflow=hidden;" vertex="1" parent="RVTYteY4xEqkH4nEgRWx-262">
          <mxGeometry x="30" width="150" height="30" as="geometry" />
        </mxCell>
        <mxCell id="RVTYteY4xEqkH4nEgRWx-265" value="" style="shape=partialRectangle;collapsible=0;dropTarget=0;pointerEvents=0;fillColor=none;top=0;left=0;bottom=0;right=0;points=[[0,0.5],[1,0.5]];portConstraint=eastwest;" vertex="1" parent="RVTYteY4xEqkH4nEgRWx-252">
          <mxGeometry y="150" width="180" height="30" as="geometry" />
        </mxCell>
        <mxCell id="RVTYteY4xEqkH4nEgRWx-266" value="" style="shape=partialRectangle;connectable=0;fillColor=none;top=0;left=0;bottom=0;right=0;editable=1;overflow=hidden;" vertex="1" parent="RVTYteY4xEqkH4nEgRWx-265">
          <mxGeometry width="30" height="30" as="geometry" />
        </mxCell>
        <mxCell id="RVTYteY4xEqkH4nEgRWx-267" value="CHANGE_TS" style="shape=partialRectangle;connectable=0;fillColor=none;top=0;left=0;bottom=0;right=0;align=left;spacingLeft=6;overflow=hidden;" vertex="1" parent="RVTYteY4xEqkH4nEgRWx-265">
          <mxGeometry x="30" width="150" height="30" as="geometry" />
        </mxCell>
        <mxCell id="RVTYteY4xEqkH4nEgRWx-268" value="" style="shape=partialRectangle;collapsible=0;dropTarget=0;pointerEvents=0;fillColor=none;top=0;left=0;bottom=0;right=0;points=[[0,0.5],[1,0.5]];portConstraint=eastwest;" vertex="1" parent="RVTYteY4xEqkH4nEgRWx-252">
          <mxGeometry y="180" width="180" height="40" as="geometry" />
        </mxCell>
        <mxCell id="RVTYteY4xEqkH4nEgRWx-269" value="" style="shape=partialRectangle;connectable=0;fillColor=none;top=0;left=0;bottom=0;right=0;editable=1;overflow=hidden;" vertex="1" parent="RVTYteY4xEqkH4nEgRWx-268">
          <mxGeometry width="30" height="40" as="geometry" />
        </mxCell>
        <mxCell id="RVTYteY4xEqkH4nEgRWx-270" value="DELETED_FL" style="shape=partialRectangle;connectable=0;fillColor=none;top=0;left=0;bottom=0;right=0;align=left;spacingLeft=6;overflow=hidden;" vertex="1" parent="RVTYteY4xEqkH4nEgRWx-268">
          <mxGeometry x="30" width="150" height="40" as="geometry" />
        </mxCell>
      </root>
    </mxGraphModel>
  </diagram>
</mxfile>
